<svg xmlns="http://www.w3.org/2000/svg" width="95.09" height="94.86" viewBox="0 0 95.09 94.86">
  <title>Zasób 19</title>
  <g id="Warstwa_2" data-name="Warstwa 2">
    <g id="Warstwa_2-2" data-name="Warstwa 2">
      <g>
        <ellipse cx="48.19" cy="46" rx="21.64" ry="20.54" style="fill: #1bb0db"/>
        <circle cx="47.7" cy="46.68" r="3.29" style="stroke: #000;stroke-miterlimit: 10"/>
        <g>
          <rect x="32.57" y="6.42" width="6.03" height="6.03" transform="translate(-1.19 11.21) rotate(-17.62)" style="fill: none;stroke: #000;stroke-miterlimit: 10;stroke-width: 9px"/>
          <rect x="57.51" y="82.41" width="6.03" height="6.03" transform="translate(-23.01 22.32) rotate(-17.62)" style="fill: none;stroke: #000;stroke-miterlimit: 10;stroke-width: 9px"/>
          <rect x="82.65" y="32" width="6.03" height="6.03" transform="translate(-6.58 27.57) rotate(-17.62)" style="fill: none;stroke: #000;stroke-miterlimit: 10;stroke-width: 9px"/>
          <rect x="6.42" y="56.2" width="6.03" height="6.03" transform="translate(-17.48 5.63) rotate(-17.62)" style="fill: none;stroke: #000;stroke-miterlimit: 10;stroke-width: 9px"/>
          <rect x="60.97" y="7.17" width="6.03" height="6.03" transform="translate(10.27 -26.04) rotate(24.95)" style="fill: none;stroke: #000;stroke-miterlimit: 10;stroke-width: 9px"/>
          <rect x="28.73" y="81.21" width="6.03" height="6.03" transform="translate(38.49 -5.53) rotate(24.95)" style="fill: none;stroke: #000;stroke-miterlimit: 10;stroke-width: 9px"/>
          <rect x="81.15" y="61.69" width="6.03" height="6.03" transform="translate(35.15 -29.47) rotate(24.95)" style="fill: none;stroke: #000;stroke-miterlimit: 10;stroke-width: 9px"/>
          <rect x="10.3" y="24.99" width="6.03" height="6.03" transform="translate(13.05 -3) rotate(24.95)" style="fill: none;stroke: #000;stroke-miterlimit: 10;stroke-width: 9px"/>
        </g>
        <circle cx="48.19" cy="47.1" r="35.33" style="fill: none;stroke: #000;stroke-miterlimit: 10;stroke-width: 11px"/>
      </g>
    </g>
  </g>
</svg>
